<svg width="826" height="492" xmlns="http://www.w3.org/2000/svg" xmlns:xlink="http://www.w3.org/1999/xlink" overflow="hidden"><defs><clipPath id="clip0"><path d="M79 130 905 130 905 622 79 622Z" fill-rule="evenodd" clip-rule="evenodd"/></clipPath><clipPath id="clip1"><path d="M80 130 905 130 905 622 80 622Z" fill-rule="evenodd" clip-rule="evenodd"/></clipPath><clipPath id="clip2"><path d="M80 130 906 130 906 622 80 622Z" fill-rule="evenodd" clip-rule="evenodd"/></clipPath><clipPath id="clip3"><path d="M80 130 906 130 906 851 80 851Z" fill-rule="evenodd" clip-rule="evenodd"/></clipPath></defs><g clip-path="url(#clip0)" transform="translate(-79 -130)"><g clip-path="url(#clip1)"><g clip-path="url(#clip2)"><g clip-path="url(#clip3)"><path d="M-1231.97 1646.2C-1260.34 1646.2-1289.51 1668.93-1289.51 1708.72-1289.51 1745.09-1263.86 1770.79-1231.97 1770.79-1205.65 1770.79-1193.92 1753.12-1193.92 1753.12L-1193.92 1760.82C-1193.92 1764.46-1190.47 1768.52-1186.21 1768.52L-1167.19 1768.52-1167.19 1648.92-1193.92 1648.92-1193.92 1664.09C-1193.92 1664.09-1205.75 1646.2-1231.97 1646.2ZM-1227.21 1670.65C-1203.86 1670.65-1191.61 1691.19-1191.61 1708.71-1191.61 1728.22-1206.15 1746.75-1227.16 1746.75-1244.72 1746.75-1262.31 1732.53-1262.31 1708.45-1262.31 1686.72-1247.18 1670.65-1227.21 1670.65Z" fill="#0EE6B7" transform="matrix(1 0 -0 1.001 1369.51 -921.664)"/><path d="M-1130.04 1768.52C-1134.14 1768.52-1137.74 1765.58-1137.74 1760.82L-1137.74 1648.92-1111.01 1648.92-1111.01 1663.72C-1104.95 1654.61-1093.12 1646.16-1074.95 1646.16-1045.27 1646.16-1029.46 1669.83-1029.46 1691.96L-1029.46 1768.52-1048.03 1768.52C-1052.91 1768.52-1056.19 1764.44-1056.19 1760.37L-1056.19 1697.85C-1056.19 1685.58-1063.7 1670.68-1081.09 1670.68-1099.84 1670.68-1111.01 1688.41-1111.01 1705.09L-1111.01 1768.52Z" fill="#0EE6B7" transform="matrix(1 0 -0 1.001 1369.51 -921.664)"/><path d="M-951.536 1646.2C-979.903 1646.2-1009.07 1668.93-1009.07 1708.72-1009.07 1745.09-983.426 1770.79-951.536 1770.79-925.212 1770.79-913.479 1753.12-913.479 1753.12L-913.479 1760.82C-913.479 1764.46-910.038 1768.52-905.778 1768.52L-886.75 1768.52-886.75 1589.11-913.479 1589.11-913.479 1664.09C-913.479 1664.09-925.31 1646.2-951.536 1646.2ZM-946.774 1670.65C-923.421 1670.65-911.172 1691.19-911.172 1708.71-911.172 1728.22-925.716 1746.75-946.724 1746.75-964.286 1746.75-981.878 1732.53-981.878 1708.45-981.878 1686.72-966.739 1670.65-946.774 1670.65Z" fill="#0EE6B7" transform="matrix(1 0 -0 1.001 1369.51 -921.664)"/><path d="M-849.6 1768.52C-853.706 1768.52-857.302 1765.58-857.302 1760.82L-857.302 1648.92-830.572 1648.92-830.572 1668.85C-825.971 1657.68-816.043 1647.56-798.405 1647.56-793.488 1647.56-788.891 1648.46-788.891 1648.46L-788.891 1676.1C-788.891 1676.1-794.632 1673.83-801.577 1673.83-820.331 1673.83-830.572 1691.56-830.572 1708.25L-830.572 1768.52Z" fill="#0EE6B7" transform="matrix(1 0 -0 1.001 1369.51 -921.664)"/><path d="M-626.7 1768.52C-630.807 1768.52-634.402 1765.58-634.402 1760.82L-634.402 1648.92-607.672 1648.92-607.672 1768.52Z" fill="#0EE6B7" transform="matrix(1 0 -0 1.001 1369.51 -921.664)"/><path d="M-529.295 1646.2C-557.662 1646.2-586.832 1668.93-586.832 1708.72-586.832 1745.09-561.185 1770.79-529.295 1770.79-502.971 1770.79-491.239 1753.12-491.239 1753.12L-491.239 1760.82C-491.239 1764.46-487.797 1768.52-483.537 1768.52L-464.509 1768.52-464.509 1589.11-491.239 1589.11-491.239 1664.09C-491.239 1664.09-503.069 1646.2-529.295 1646.2ZM-524.533 1670.65C-501.181 1670.65-488.931 1691.19-488.931 1708.71-488.931 1728.22-503.475 1746.75-524.484 1746.75-542.046 1746.75-559.638 1732.53-559.638 1708.45-559.638 1686.72-544.499 1670.65-524.533 1670.65Z" fill="#0EE6B7" transform="matrix(1 0 -0 1.001 1369.51 -921.664)"/><path d="M-603.568 1605.44C-603.568 1615.2-611.484 1623.12-621.247 1623.12-631.011 1623.12-638.927 1615.2-638.927 1605.44-638.927 1595.68-631.011 1587.76-621.247 1587.76-611.484 1587.76-603.568 1595.68-603.568 1605.44Z" fill="#0EE6B7" transform="matrix(1 0 -0 1.001 1369.51 -921.664)"/><path d="M-718.398 1646.16C-748.107 1646.16-780.746 1668.33-780.746 1708.51-780.746 1745.11-752.945 1770.79-718.463 1770.79-675.967 1770.79-655.216 1736.63-655.216 1708.74-655.216 1674.51-681.936 1646.16-718.398 1646.16ZM-718.301 1671.12C-697.757 1671.12-682.432 1687.68-682.432 1708.58-682.432 1729.85-698.7 1746.26-718.24 1746.26-736.379 1746.26-754.011 1731.5-754.011 1708.94-754.011 1686.01-737.241 1671.12-718.301 1671.12Z" fill="#0EE6B7" transform="matrix(1 0 -0 1.001 1369.51 -921.664)"/><path d="M822.673 955.982 891.063 837.511C894.923 830.869 892.589 822.433 886.037 818.573 879.485 814.714 870.959 816.958 867.19 823.599L797.902 943.596C745.039 919.453 685.534 905.991 621.542 905.991 557.55 905.991 498.045 919.453 445.182 943.596L375.895 823.599C372.036 816.958 363.599 814.714 356.958 818.573 350.316 822.433 348.072 830.869 351.931 837.511L420.321 955.982C302.389 1019.88 222.511 1139.25 209.318 1278.99L1033.77 1278.99C1020.57 1139.25 940.695 1019.88 822.673 955.982ZM432.258 1163.22C413.141 1163.22 397.704 1147.69 397.704 1128.66 397.704 1109.54 413.231 1094.11 432.258 1094.11 451.375 1094.11 466.812 1109.63 466.812 1128.66 466.902 1147.69 451.375 1163.22 432.258 1163.22ZM810.737 1163.22C791.62 1163.22 776.182 1147.69 776.182 1128.66 776.182 1109.54 791.709 1094.11 810.737 1094.11 829.853 1094.11 845.29 1109.63 845.29 1128.66 845.38 1147.69 829.853 1163.22 810.737 1163.22Z" fill="#0EE6B7" transform="matrix(1 0 -0 1.001 -128.823 -687.447)"/></g></g></g></g></svg>