<svg width="209" height="210" xmlns="http://www.w3.org/2000/svg" xmlns:xlink="http://www.w3.org/1999/xlink" overflow="hidden"><defs><clipPath id="clip0"><path d="M580 391 789 391 789 601 580 601Z" fill-rule="evenodd" clip-rule="evenodd"/></clipPath></defs><g clip-path="url(#clip0)" transform="translate(-580 -391)"><path d="M619.5 455.5C619.5 421.258 647.258 393.5 681.5 393.5 715.742 393.5 743.5 421.258 743.5 455.5 743.5 489.742 715.742 517.5 681.5 517.5 647.258 517.5 619.5 489.742 619.5 455.5Z" stroke="#0EE6B7" stroke-width="1.33333" stroke-miterlimit="8" fill="#0EE6B7" fill-rule="evenodd"/><path d="M716.5 499.5C756.265 499.5 788.5 544.719 788.5 600.5L716.5 600.5Z" fill="#0EE6B7" fill-rule="evenodd"/><path d="M716.5 499.5C756.265 499.5 788.5 544.719 788.5 600.5" stroke="#0EE6B7" stroke-width="0.666667" stroke-miterlimit="8" fill="none" fill-rule="evenodd"/><path d="M71.9999 0C111.764-2.57173e-14 144 45.2192 144 101L72.0001 101Z" fill="#0EE6B7" fill-rule="evenodd" transform="matrix(-1 -8.74228e-08 -8.74228e-08 1 725.5 499.5)"/><path d="M71.9999 0C111.764-2.57173e-14 144 45.2192 144 101" stroke="#0EE6B7" stroke-width="0.666667" stroke-miterlimit="8" fill="none" fill-rule="evenodd" transform="matrix(-1 -8.74228e-08 -8.74228e-08 1 725.5 499.5)"/></g></svg>