<svg width="579" height="579" xmlns="http://www.w3.org/2000/svg" xmlns:xlink="http://www.w3.org/1999/xlink" overflow="hidden"><defs><clipPath id="clip0"><path d="M-2135 346-1556 346-1556 925-2135 925Z" fill-rule="evenodd" clip-rule="evenodd"/></clipPath></defs><g clip-path="url(#clip0)" transform="translate(2135 -346)"><path d="M-2132.5 636.5C-2132.5 477.442-2003.56 348.5-1844.5 348.5L-1844.5 348.5C-1685.44 348.5-1556.5 477.442-1556.5 636.5L-1556.5 636.5C-1556.5 795.558-1685.44 924.5-1844.5 924.5L-1844.5 924.5C-2003.56 924.5-2132.5 795.558-2132.5 636.5Z" stroke="#FFFFFF" stroke-width="1.33333" stroke-miterlimit="8" fill="#242526" fill-rule="evenodd"/><path d="M-2022 636C-2022 609.49-2000.51 588-1974 588-1947.49 588-1926 609.49-1926 636-1926 662.51-1947.49 684-1974 684-2000.51 684-2022 662.51-2022 636Z" fill="#0EE6B7" fill-rule="evenodd"/><path d="M-1893 636C-1893 609.49-1871.51 588-1845 588-1818.49 588-1797 609.49-1797 636-1797 662.51-1818.49 684-1845 684-1871.51 684-1893 662.51-1893 636Z" fill="#0EE6B7" fill-rule="evenodd"/><path d="M-1765 636C-1765 609.49-1743.51 588-1717 588-1690.49 588-1669 609.49-1669 636-1669 662.51-1690.49 684-1717 684-1743.51 684-1765 662.51-1765 636Z" fill="#0EE6B7" fill-rule="evenodd"/></g></svg>