<svg width="354" height="97" xmlns="http://www.w3.org/2000/svg" xmlns:xlink="http://www.w3.org/1999/xlink" overflow="hidden"><defs><clipPath id="clip0"><path d="M353 1964 707 1964 707 2061 353 2061Z" fill-rule="evenodd" clip-rule="evenodd"/></clipPath></defs><g clip-path="url(#clip0)" transform="translate(-353 -1964)"><path d="M354 2013C354 1986.49 375.49 1965 402 1965 428.51 1965 450 1986.49 450 2013 450 2039.51 428.51 2061 402 2061 375.49 2061 354 2039.51 354 2013Z" fill="#0EE6B7" fill-rule="evenodd"/><path d="M482 2013C482 1986.49 503.49 1965 530 1965 556.51 1965 578 1986.49 578 2013 578 2039.51 556.51 2061 530 2061 503.49 2061 482 2039.51 482 2013Z" fill="#0EE6B7" fill-rule="evenodd"/><path d="M611 2013C611 1986.49 632.49 1965 659 1965 685.51 1965 707 1986.49 707 2013 707 2039.51 685.51 2061 659 2061 632.49 2061 611 2039.51 611 2013Z" fill="#0EE6B7" fill-rule="evenodd"/></g></svg>